<?xml version="1.0" encoding="UTF-8" standalone="no"?>
<!DOCTYPE svg PUBLIC "-//W3C//DTD SVG 1.1//EN"
 "http://www.w3.org/Graphics/SVG/1.1/DTD/svg11.dtd">
<!-- Generated by graphviz version 2.26.3 (20100126.1600)
 -->
<!-- Title: TestGraph Pages: 1 -->
<svg width="730pt" height="900pt"
 viewBox="0.00 0.00 730.00 900.00" xmlns="http://www.w3.org/2000/svg" xmlns:xlink="http://www.w3.org/1999/xlink">
<g id="graph1" class="graph" transform="scale(1 1) rotate(0) translate(4 896)">
<title>TestGraph</title>
<polygon fill="white" stroke="white" points="-4,5 -4,-896 727,-896 727,5 -4,5"/>
<!-- ell_a -->
<g id="node1" class="node"><title>ell_a</title>
<ellipse fill="none" stroke="black" cx="151" cy="-874" rx="93.2074" ry="18"/>
<text text-anchor="middle" x="151" y="-871" font-family="Courier,monospace" font-size="10.00">Vehicle Logs, vsb files</text>
</g>
<!-- box_parse -->
<g id="node6" class="node"><title>box_parse</title>
<polygon fill="none" stroke="black" points="266,-785.5 36,-785.5 36,-726.5 266,-726.5 266,-785.5"/>
<text text-anchor="middle" x="151" y="-769.8" font-family="Verdana" font-size="13.00">VSB&#45;to&#45;matlab converter</text>
<text text-anchor="middle" x="151" y="-752.8" font-family="Verdana" font-size="13.00"> ParseCode\log2mat\logparse.m </text>
<text text-anchor="middle" x="151" y="-735.8" font-family="Verdana" font-size="13.00"> MF and Ford</text>
</g>
<!-- ell_a&#45;&gt;box_parse -->
<g id="edge2" class="edge"><title>ell_a&#45;&gt;box_parse</title>
<path fill="none" stroke="black" d="M151,-855.821C151,-839.966 151,-816.397 151,-796.142"/>
<polygon fill="black" stroke="black" points="154.5,-795.91 151,-785.91 147.5,-795.91 154.5,-795.91"/>
<text text-anchor="middle" x="255" y="-830.3" font-family="Verdana" font-size="8.00">All sensor messages</text>
<text text-anchor="middle" x="255" y="-819.3" font-family="Verdana" font-size="8.00">GPS measurements @ 10Hz, Millions of Samples</text>
<text text-anchor="middle" x="255" y="-808.3" font-family="Verdana" font-size="8.00">One file per journey</text>
</g>
<!-- ell_c -->
<g id="node2" class="node"><title>ell_c</title>
<ellipse fill="none" stroke="black" cx="521" cy="-638" rx="104.031" ry="18"/>
<text text-anchor="middle" x="521" y="-635" font-family="Courier,monospace" font-size="10.00">Open Street Map StripperDW</text>
</g>
<!-- box_osm -->
<g id="node10" class="node"><title>box_osm</title>
<polygon fill="none" stroke="black" points="722,-537.5 320,-537.5 320,-478.5 722,-478.5 722,-537.5"/>
<text text-anchor="middle" x="521" y="-521.8" font-family="Verdana" font-size="13.00">Create Road Network</text>
<text text-anchor="middle" x="521" y="-504.8" font-family="Verdana" font-size="13.00"> osm_map.py: Parse osm data(xml) into Waypoints &amp; Ways</text>
<text text-anchor="middle" x="521" y="-487.8" font-family="Verdana" font-size="13.00"> DW</text>
</g>
<!-- ell_c&#45;&gt;box_osm -->
<g id="edge10" class="edge"><title>ell_c&#45;&gt;box_osm</title>
<path fill="none" stroke="black" d="M521,-619.924C521,-601.449 521,-572.144 521,-548.155"/>
<polygon fill="black" stroke="black" points="524.5,-547.906 521,-537.906 517.5,-547.906 524.5,-547.906"/>
<text text-anchor="middle" x="589" y="-582.3" font-family="Verdana" font-size="8.00">Complete set of road segments</text>
<text text-anchor="middle" x="589" y="-571.3" font-family="Verdana" font-size="8.00"> buildings &amp; waypoints &amp; ways </text>
<text text-anchor="middle" x="589" y="-560.3" font-family="Verdana" font-size="8.00">42.3&#45;42.4 N,71.2&#45;71.0W </text>
</g>
<!-- ell_dotmap -->
<g id="node3" class="node"><title>ell_dotmap</title>
<ellipse fill="none" stroke="black" cx="362" cy="-18" rx="53.0189" ry="18"/>
<text text-anchor="middle" x="362" y="-15" font-family="Courier,monospace" font-size="10.00">PNG of Route</text>
</g>
<!-- box_b -->
<g id="node4" class="node"><title>box_b</title>
<polygon fill="none" stroke="black" points="489,-289.5 235,-289.5 235,-230.5 489,-230.5 489,-289.5"/>
<text text-anchor="middle" x="362" y="-273.8" font-family="Verdana" font-size="13.00">RT&#45;to&#45;matlab Converter</text>
<text text-anchor="middle" x="362" y="-256.8" font-family="Verdana" font-size="13.00"> ParseCode\rt_py2mat\rt_py2mat.m</text>
<text text-anchor="middle" x="362" y="-239.8" font-family="Verdana" font-size="13.00">DW</text>
</g>
<!-- box_c -->
<g id="node5" class="node"><title>box_c</title>
<polygon fill="none" stroke="black" points="432,-160 292,-160 292,-84 432,-84 432,-160"/>
<text text-anchor="middle" x="362" y="-144.3" font-family="Verdana" font-size="13.00">DAG Grapher</text>
<text text-anchor="middle" x="362" y="-127.3" font-family="Verdana" font-size="13.00">matlab script</text>
<text text-anchor="middle" x="362" y="-110.3" font-family="Verdana" font-size="13.00"> analysis_launch.m</text>
<text text-anchor="middle" x="362" y="-93.3" font-family="Verdana" font-size="13.00"> MF</text>
</g>
<!-- box_b&#45;&gt;box_c -->
<g id="edge16" class="edge"><title>box_b&#45;&gt;box_c</title>
<path fill="none" stroke="black" d="M362,-230.396C362,-212.928 362,-190.395 362,-170.403"/>
<polygon fill="black" stroke="black" points="365.5,-170.219 362,-160.22 358.5,-170.22 365.5,-170.219"/>
<text text-anchor="middle" x="477.5" y="-204.3" font-family="Verdana" font-size="8.00">One file (drive_data.mat) containing:</text>
<text text-anchor="middle" x="477.5" y="-193.3" font-family="Verdana" font-size="8.00"> each journey divided into typically 20 road segments</text>
<text text-anchor="middle" x="477.5" y="-182.3" font-family="Verdana" font-size="8.00">Index of each road segment from OSM</text>
</g>
<!-- box_c&#45;&gt;ell_dotmap -->
<g id="edge18" class="edge"><title>box_c&#45;&gt;ell_dotmap</title>
<path fill="none" stroke="black" d="M362,-83.8648C362,-71.3483 362,-57.6757 362,-46.0477"/>
<polygon fill="black" stroke="black" points="365.5,-46.0356 362,-36.0356 358.5,-46.0356 365.5,-46.0356"/>
<text text-anchor="middle" x="430" y="-58.3" font-family="Verdana" font-size="8.00">(Sparse) state transition matrix</text>
</g>
<!-- box_smooth -->
<g id="node8" class="node"><title>box_smooth</title>
<polygon fill="none" stroke="black" points="268,-667.5 34,-667.5 34,-608.5 268,-608.5 268,-667.5"/>
<text text-anchor="middle" x="151" y="-651.8" font-family="Verdana" font-size="13.00">Lat &amp; Lon Smoothing</text>
<text text-anchor="middle" x="151" y="-634.8" font-family="Verdana" font-size="13.00">SmoothSignals\smooth_batch.m </text>
<text text-anchor="middle" x="151" y="-617.8" font-family="Verdana" font-size="13.00"> MF</text>
</g>
<!-- box_parse&#45;&gt;box_smooth -->
<g id="edge4" class="edge"><title>box_parse&#45;&gt;box_smooth</title>
<path fill="none" stroke="black" d="M151,-726.224C151,-711.55 151,-693.65 151,-677.818"/>
<polygon fill="black" stroke="black" points="154.5,-677.767 151,-667.767 147.5,-677.767 154.5,-677.767"/>
<text text-anchor="middle" x="214.5" y="-700.8" font-family="Verdana" font-size="8.00">All sensor messages</text>
<text text-anchor="middle" x="214.5" y="-689.8" font-family="Verdana" font-size="8.00"> 1 Matlab datafile per journey</text>
</g>
<!-- box_assignment -->
<g id="node7" class="node"><title>box_assignment</title>
<polygon fill="none" stroke="black" points="573,-407.5 151,-407.5 151,-348.5 573,-348.5 573,-407.5"/>
<text text-anchor="middle" x="362" y="-391.8" font-family="Verdana" font-size="13.00">Lane Assignment Module</text>
<text text-anchor="middle" x="362" y="-374.8" font-family="Verdana" font-size="13.00"> osm_search.py: Assign road segment to GPS data in gpx files</text>
<text text-anchor="middle" x="362" y="-357.8" font-family="Verdana" font-size="13.00"> DW</text>
</g>
<!-- box_assignment&#45;&gt;box_b -->
<g id="edge14" class="edge"><title>box_assignment&#45;&gt;box_b</title>
<path fill="none" stroke="black" d="M362,-348.224C362,-333.55 362,-315.65 362,-299.818"/>
<polygon fill="black" stroke="black" points="365.5,-299.767 362,-289.767 358.5,-299.767 365.5,-299.767"/>
<text text-anchor="middle" x="479" y="-322.8" font-family="Verdana" font-size="8.00">.rt text files, one per journey</text>
<text text-anchor="middle" x="479" y="-311.8" font-family="Verdana" font-size="8.00"> each journey divided into typically 20 road segments </text>
</g>
<!-- box_gpx -->
<g id="node9" class="node"><title>box_gpx</title>
<polygon fill="none" stroke="black" points="302,-537.5 1.42109e-13,-537.5 0,-478.5 302,-478.5 302,-537.5"/>
<text text-anchor="middle" x="151" y="-521.8" font-family="Verdana" font-size="13.00">matlab&#45;to&#45;gpx converter (php visualization)</text>
<text text-anchor="middle" x="151" y="-504.8" font-family="Verdana" font-size="13.00"> ParseCode\mat2gpx\w_preprocess.m </text>
<text text-anchor="middle" x="151" y="-487.8" font-family="Verdana" font-size="13.00"> DW</text>
</g>
<!-- box_smooth&#45;&gt;box_gpx -->
<g id="edge6" class="edge"><title>box_smooth&#45;&gt;box_gpx</title>
<path fill="none" stroke="black" d="M151,-608.175C151,-590.257 151,-567.234 151,-547.779"/>
<polygon fill="black" stroke="black" points="154.5,-547.686 151,-537.686 147.5,-547.686 154.5,-547.686"/>
<text text-anchor="middle" x="214.5" y="-582.3" font-family="Verdana" font-size="8.00">All sensor messages</text>
<text text-anchor="middle" x="214.5" y="-571.3" font-family="Verdana" font-size="8.00">plus smoothed lat and lon</text>
<text text-anchor="middle" x="214.5" y="-560.3" font-family="Verdana" font-size="8.00">1 Matlab datafile per journey </text>
</g>
<!-- box_gpx&#45;&gt;box_assignment -->
<g id="edge8" class="edge"><title>box_gpx&#45;&gt;box_assignment</title>
<path fill="none" stroke="black" d="M199.143,-478.338C230.741,-458.871 272.201,-433.327 305.38,-412.884"/>
<polygon fill="black" stroke="black" points="307.386,-415.76 314.064,-407.534 303.714,-409.8 307.386,-415.76"/>
<text text-anchor="middle" x="348.5" y="-446.8" font-family="Verdana" font-size="8.00">time plus smoothed lat and lon</text>
<text text-anchor="middle" x="348.5" y="-435.8" font-family="Verdana" font-size="8.00">1 gpx datafile per journey </text>
</g>
<!-- box_osm&#45;&gt;box_assignment -->
<g id="edge12" class="edge"><title>box_osm&#45;&gt;box_assignment</title>
<path fill="none" stroke="black" d="M484.522,-478.175C461.192,-459.101 430.789,-434.242 406.105,-414.061"/>
<polygon fill="black" stroke="black" points="408.265,-411.306 398.308,-407.686 403.834,-416.725 408.265,-411.306"/>
<text text-anchor="middle" x="528" y="-452.3" font-family="Verdana" font-size="8.00">Complete set of road segments</text>
<text text-anchor="middle" x="528" y="-441.3" font-family="Verdana" font-size="8.00"> organized waypoints &amp; ways </text>
<text text-anchor="middle" x="528" y="-430.3" font-family="Verdana" font-size="8.00"> </text>
</g>
</g>
</svg>
